# xmcd
#
# Track frame offsets:
#	150
#	14045
#	25703
#	40831
#	53115
#	72895
#	87879
#	99749
#	113894
#	131594
#	142851
#	156665
#	175887
#	190746
#	208784
#	221313
#	234238
#	249675
#	261012
#	275341
#	291352
#	312193
#	323064
#	333955
#
# Disc length: 4653 seconds
#
# Revision: 0
# Processed by: cddbd v1.5.2PL0 Copyright (c) Steve Scherf et al.
# Submitted via: dBpowerAMP V4.0
#
DISCID=5d122b18
DTITLE=Billy Swan - Rock On With The Rhythm
DYEAR=2007
DGENRE=Country
TTITLE0=Your True Love
TTITLE1=Everything's The Same
TTITLE2=Mystery Train
TTITLE3=Undying Love
TTITLE4=Smoky Places
TTITLE5=Don't Kill Our Love
TTITLE6=Number One
TTITLE7=Shake Rattle And Roll
TTITLE8=Pardon Me
TTITLE9=I Just Want To Taste Your Mind
TTITLE10=Vanessa
TTITLE11=Don't Be Cruel
TTITLE12=(You Just) Woman Handled My Mind
TTITLE13=I Can help
TTITLE14=Sun Medley (Baby Let's Play House-I'm Left, You're Right, She's Gone-You're A Heartbreaker-Baby Let's Play House)
TTITLE15=Rock On With The Rhythm
TTITLE16=Wild Young And Reckless
TTITLE17=Bop To Be
TTITLE18=Overnite Thing
TTITLE19=Stranger
TTITLE20=Lover Please
TTITLE21=Memphis Rocks
TTITLE22=Ubangi Stomp
TTITLE23=Matchbox
EXTD=
EXTT0=
EXTT1=
EXTT2=
EXTT3=
EXTT4=
EXTT5=
EXTT6=
EXTT7=
EXTT8=
EXTT9=
EXTT10=
EXTT11=
EXTT12=
EXTT13=
EXTT14=
EXTT15=
EXTT16=
EXTT17=
EXTT18=
EXTT19=
EXTT20=
EXTT21=
EXTT22=
EXTT23=
PLAYORDER=
